<svg width="160" height="101" viewBox="0 0 160 101" fill="none" xmlns="http://www.w3.org/2000/svg">
<rect width="159.672" height="3.48692" transform="matrix(1 0 0 -1 0 68.2441)" fill="white"/>
<rect width="159.672" height="3.48191" transform="matrix(1 0 0 -1 0 31.9326)" fill="white"/>
<rect width="31.6877" height="3.48191" transform="matrix(-4.37114e-08 1 1 4.37114e-08 63.9929 0.244873)" fill="white"/>
<rect width="31.6877" height="3.48191" transform="matrix(-4.37114e-08 1 1 4.37114e-08 73.26 64.7571)" fill="white"/>
<path d="M4.61987 57.6105V37.6629H13.0422C13.2361 37.6629 13.4947 37.6721 13.8179 37.6906C14.1504 37.6998 14.4459 37.7275 14.7045 37.7737C15.8958 37.9584 16.8701 38.3509 17.6274 38.9512C18.3939 39.5514 18.9572 40.3087 19.3174 41.223C19.6775 42.128 19.8576 43.1392 19.8576 44.2567C19.8576 45.3741 19.6729 46.39 19.3035 47.3042C18.9434 48.2093 18.38 48.9619 17.6135 49.5622C16.8562 50.1625 15.8866 50.5549 14.7045 50.7396C14.4459 50.7766 14.1504 50.8043 13.8179 50.8228C13.4855 50.8412 13.2269 50.8505 13.0422 50.8505H8.38775V57.6105H4.61987ZM8.38775 47.3319H12.876C13.0699 47.3319 13.2823 47.3227 13.5132 47.3042C13.7441 47.2858 13.9565 47.2488 14.1504 47.1934C14.6583 47.0549 15.0508 46.824 15.3279 46.5008C15.6049 46.1683 15.7942 45.8035 15.8958 45.4064C16.0066 45.0001 16.062 44.6168 16.062 44.2567C16.062 43.8965 16.0066 43.5179 15.8958 43.1208C15.7942 42.7144 15.6049 42.3497 15.3279 42.0264C15.0508 41.694 14.6583 41.4585 14.1504 41.3199C13.9565 41.2645 13.7441 41.2276 13.5132 41.2091C13.2823 41.1907 13.0699 41.1814 12.876 41.1814H8.38775V47.3319Z" fill="#5C9D46"/>
<path d="M26.4971 58.0261C25.4258 58.0261 24.5162 57.8229 23.7681 57.4165C23.0293 57.001 22.466 56.4515 22.0781 55.7681C21.6995 55.0755 21.5102 54.3136 21.5102 53.4824C21.5102 52.7898 21.6164 52.1572 21.8288 51.5846C22.0412 51.0121 22.3829 50.5088 22.8539 50.0747C23.3341 49.6314 23.9759 49.262 24.7794 48.9665C25.3335 48.7634 25.9938 48.5833 26.7603 48.4263C27.5268 48.2693 28.3949 48.1215 29.3645 47.983C30.3342 47.8352 31.4009 47.6736 32.5645 47.4982L31.2069 48.2462C31.2069 47.3596 30.9945 46.7086 30.5697 46.293C30.1449 45.8774 29.4338 45.6696 28.4364 45.6696C27.8823 45.6696 27.3051 45.8035 26.7049 46.0714C26.1046 46.3392 25.6844 46.8148 25.4443 47.4982L22.0366 46.4177C22.4152 45.1802 23.1263 44.1736 24.1699 43.3978C25.2134 42.6221 26.6356 42.2342 28.4364 42.2342C29.757 42.2342 30.9299 42.4374 31.955 42.8437C32.98 43.2501 33.7558 43.9519 34.2822 44.9493C34.5777 45.5034 34.7532 46.0575 34.8086 46.6116C34.864 47.1657 34.8917 47.7844 34.8917 48.4678V57.6105H31.5948V54.5352L32.0658 55.1724C31.3362 56.1791 30.5466 56.9086 29.697 57.3611C28.8566 57.8044 27.79 58.0261 26.4971 58.0261ZM27.3005 55.0616C27.9931 55.0616 28.5749 54.9416 29.0459 54.7015C29.5262 54.4521 29.9048 54.1704 30.1818 53.8565C30.4681 53.5425 30.6621 53.2793 30.7636 53.0669C30.9576 52.6605 31.0684 52.1895 31.0961 51.6539C31.133 51.109 31.1515 50.6565 31.1515 50.2964L32.2597 50.5734C31.1423 50.7581 30.2372 50.9151 29.5446 51.0444C28.852 51.1645 28.2933 51.2753 27.8685 51.3769C27.4437 51.4784 27.0696 51.5893 26.7464 51.7093C26.377 51.8571 26.0769 52.0187 25.846 52.1942C25.6244 52.3604 25.4581 52.5451 25.3473 52.7483C25.2457 52.9514 25.1949 53.1777 25.1949 53.427C25.1949 53.7687 25.2781 54.0642 25.4443 54.3136C25.6197 54.5537 25.8645 54.7384 26.1785 54.8677C26.4925 54.997 26.8665 55.0616 27.3005 55.0616Z" fill="#5C9D46"/>
<path d="M38.7706 57.6105V37.2473H42.5385V57.6105H38.7706Z" fill="#5C9D46"/>
<path d="M53.6454 58.0261C52.1124 58.0261 50.7594 57.6982 49.5866 57.0425C48.423 56.3776 47.5087 55.468 46.8438 54.3136C46.1881 53.15 45.8603 51.8201 45.8603 50.3241C45.8603 48.6895 46.1835 47.2673 46.8299 46.0575C47.4764 44.8477 48.3676 43.9104 49.5035 43.2454C50.6394 42.5713 51.9461 42.2342 53.4237 42.2342C54.9937 42.2342 56.3281 42.6036 57.4271 43.3424C58.5261 44.0812 59.3387 45.1201 59.8651 46.4592C60.3915 47.7983 60.5762 49.3729 60.4192 51.1829H56.6929V49.7977C56.6929 48.2739 56.4482 47.1796 55.9587 46.5146C55.4785 45.8405 54.6889 45.5034 53.59 45.5034C52.3063 45.5034 51.3597 45.8959 50.7502 46.6809C50.1499 47.4566 49.8498 48.6064 49.8498 50.1301C49.8498 51.5246 50.1499 52.6051 50.7502 53.3716C51.3597 54.1289 52.2509 54.5075 53.4237 54.5075C54.1625 54.5075 54.7951 54.3459 55.3215 54.0227C55.8479 53.6995 56.2496 53.2331 56.5267 52.6236L60.2946 53.7041C59.7312 55.0709 58.8401 56.1329 57.621 56.8902C56.4112 57.6474 55.086 58.0261 53.6454 58.0261ZM48.6862 51.1829V48.3847H58.6046V51.1829H48.6862Z" fill="#5C9D46"/>
<path d="M69.3928 58.0261C67.5089 58.0261 65.9851 57.6012 64.8215 56.7516C63.6671 55.8928 62.9653 54.683 62.7159 53.1223L66.5669 52.5405C66.7239 53.2423 67.0702 53.7918 67.6059 54.1889C68.1507 54.586 68.8387 54.7846 69.6699 54.7846C70.3533 54.7846 70.8797 54.6553 71.2491 54.3967C71.6185 54.1289 71.8032 53.7595 71.8032 53.2885C71.8032 52.993 71.7293 52.7575 71.5815 52.582C71.4338 52.3973 71.1013 52.2172 70.5842 52.0418C70.0762 51.8663 69.282 51.6354 68.2015 51.3492C66.9825 51.0352 66.0082 50.6842 65.2786 50.2964C64.5491 49.9085 64.0227 49.4467 63.6995 48.9111C63.3762 48.3663 63.2146 47.7106 63.2146 46.9441C63.2146 45.9836 63.4594 45.1525 63.9488 44.4506C64.4383 43.7395 65.1263 43.1947 66.0128 42.816C66.9086 42.4281 67.9614 42.2342 69.1712 42.2342C70.344 42.2342 71.383 42.4143 72.288 42.7745C73.193 43.1346 73.9226 43.6472 74.4767 44.3121C75.04 44.977 75.3864 45.762 75.5156 46.667L71.6646 47.3596C71.6 46.8055 71.3599 46.3669 70.9443 46.0436C70.5287 45.7204 69.9654 45.5311 69.2543 45.4757C68.5617 45.4295 68.003 45.5219 67.5782 45.7527C67.1626 45.9836 66.9548 46.3161 66.9548 46.7501C66.9548 47.0087 67.0425 47.2257 67.218 47.4012C67.4027 47.5767 67.7767 47.7567 68.34 47.9414C68.9126 48.1261 69.7807 48.3663 70.9443 48.6618C72.0802 48.9573 72.9899 49.3036 73.6733 49.7007C74.3659 50.0886 74.8692 50.5596 75.1832 51.1137C75.4972 51.6585 75.6542 52.3188 75.6542 53.0946C75.6542 54.6276 75.1001 55.8327 73.9919 56.7101C72.8837 57.5874 71.3507 58.0261 69.3928 58.0261Z" fill="#5C9D46"/>
<path d="M87.6747 57.6105C86.6404 57.8044 85.6245 57.8875 84.6271 57.8598C83.639 57.8414 82.7524 57.6705 81.9674 57.3473C81.1917 57.0148 80.6007 56.4838 80.1943 55.7542C79.8249 55.0709 79.631 54.3782 79.6125 53.6764C79.594 52.9653 79.5848 52.1618 79.5848 51.266V38.494H83.3527V51.0444C83.3527 51.6262 83.3573 52.1526 83.3665 52.6236C83.385 53.0853 83.482 53.4547 83.6574 53.7318C83.9899 54.2582 84.5209 54.5445 85.2505 54.5906C85.98 54.6368 86.7881 54.5999 87.6747 54.4798V57.6105ZM77.036 45.5588V42.6498H87.6747V45.5588H77.036Z" fill="#5C9D46"/>
<path d="M91.2856 40.5719V37.2473H95.0535V40.5719H91.2856ZM91.2856 57.6105V42.6498H95.0535V57.6105H91.2856Z" fill="#5C9D46"/>
<path d="M109.402 57.6105V50.5457C109.402 50.204 109.383 49.77 109.346 49.2436C109.31 48.7079 109.194 48.1723 109 47.6367C108.806 47.1011 108.488 46.6532 108.044 46.293C107.61 45.9328 106.992 45.7527 106.188 45.7527C105.865 45.7527 105.519 45.8035 105.149 45.9051C104.78 46.0067 104.433 46.2053 104.11 46.5008C103.787 46.7871 103.519 47.2119 103.307 47.7752C103.104 48.3385 103.002 49.0866 103.002 50.0193L100.841 48.9942C100.841 47.8122 101.081 46.704 101.561 45.6696C102.042 44.6353 102.762 43.7995 103.722 43.1623C104.692 42.5251 105.911 42.2065 107.379 42.2065C108.552 42.2065 109.508 42.4051 110.247 42.8022C110.986 43.1993 111.558 43.7026 111.965 44.3121C112.38 44.9216 112.676 45.5588 112.851 46.2237C113.027 46.8794 113.133 47.4797 113.17 48.0246C113.207 48.5694 113.225 48.9665 113.225 49.2159V57.6105H109.402ZM99.1787 57.6105V42.6498H102.531V47.609H103.002V57.6105H99.1787Z" fill="#5C9D46"/>
<path d="M117.097 40.5719V37.2473H120.865V40.5719H117.097ZM117.097 57.6105V42.6498H120.865V57.6105H117.097Z" fill="#5C9D46"/>
<path d="M129.173 58.0261C128.102 58.0261 127.192 57.8229 126.444 57.4165C125.706 57.001 125.142 56.4515 124.754 55.7681C124.376 55.0755 124.186 54.3136 124.186 53.4824C124.186 52.7898 124.293 52.1572 124.505 51.5846C124.717 51.0121 125.059 50.5088 125.53 50.0747C126.01 49.6314 126.652 49.262 127.456 48.9665C128.01 48.7634 128.67 48.5833 129.436 48.4263C130.203 48.2693 131.071 48.1215 132.041 47.983C133.01 47.8352 134.077 47.6736 135.241 47.4982L133.883 48.2462C133.883 47.3596 133.671 46.7086 133.246 46.293C132.821 45.8774 132.11 45.6696 131.113 45.6696C130.559 45.6696 129.981 45.8035 129.381 46.0714C128.781 46.3392 128.361 46.8148 128.12 47.4982L124.713 46.4177C125.091 45.1802 125.803 44.1736 126.846 43.3978C127.89 42.6221 129.312 42.2342 131.113 42.2342C132.433 42.2342 133.606 42.4374 134.631 42.8437C135.656 43.2501 136.432 43.9519 136.958 44.9493C137.254 45.5034 137.429 46.0575 137.485 46.6116C137.54 47.1657 137.568 47.7844 137.568 48.4678V57.6105H134.271V54.5352L134.742 55.1724C134.012 56.1791 133.223 56.9086 132.373 57.3611C131.533 57.8044 130.466 58.0261 129.173 58.0261ZM129.977 55.0616C130.669 55.0616 131.251 54.9416 131.722 54.7015C132.202 54.4521 132.581 54.1704 132.858 53.8565C133.144 53.5425 133.338 53.2793 133.44 53.0669C133.634 52.6605 133.745 52.1895 133.772 51.6539C133.809 51.109 133.828 50.6565 133.828 50.2964L134.936 50.5734C133.818 50.7581 132.913 50.9151 132.221 51.0444C131.528 51.1645 130.969 51.2753 130.545 51.3769C130.12 51.4784 129.746 51.5893 129.423 51.7093C129.053 51.8571 128.753 52.0187 128.522 52.1942C128.301 52.3604 128.134 52.5451 128.024 52.7483C127.922 52.9514 127.871 53.1777 127.871 53.427C127.871 53.7687 127.954 54.0642 128.12 54.3136C128.296 54.5537 128.541 54.7384 128.855 54.8677C129.169 54.997 129.543 55.0616 129.977 55.0616Z" fill="#5C9D46"/>
<path d="M151.365 57.6105V50.5457C151.365 50.204 151.347 49.77 151.31 49.2436C151.273 48.7079 151.157 48.1723 150.963 47.6367C150.77 47.1011 150.451 46.6532 150.008 46.293C149.574 45.9328 148.955 45.7527 148.151 45.7527C147.828 45.7527 147.482 45.8035 147.112 45.9051C146.743 46.0067 146.397 46.2053 146.074 46.5008C145.75 46.7871 145.482 47.2119 145.27 47.7752C145.067 48.3385 144.965 49.0866 144.965 50.0193L142.804 48.9942C142.804 47.8122 143.044 46.704 143.525 45.6696C144.005 44.6353 144.725 43.7995 145.686 43.1623C146.655 42.5251 147.874 42.2065 149.343 42.2065C150.516 42.2065 151.471 42.4051 152.21 42.8022C152.949 43.1993 153.522 43.7026 153.928 44.3121C154.343 44.9216 154.639 45.5588 154.814 46.2237C154.99 46.8794 155.096 47.4797 155.133 48.0246C155.17 48.5694 155.188 48.9665 155.188 49.2159V57.6105H151.365ZM141.142 57.6105V42.6498H144.494V47.609H144.965V57.6105H141.142Z" fill="#5C9D46"/>
<path d="M87.6032 93.5194C86.0585 93.5194 84.6634 93.2491 83.4179 92.7084C82.1822 92.1581 81.1636 91.3761 80.3623 90.3624C79.5706 89.339 79.0686 88.1225 78.8562 86.713L82.969 86.1047C83.2586 87.3019 83.8572 88.2239 84.7648 88.8707C85.6723 89.5176 86.7053 89.841 87.8638 89.841C88.5107 89.841 89.1382 89.7397 89.7465 89.5369C90.3547 89.3342 90.8519 89.0349 91.2381 88.639C91.6339 88.2432 91.8318 87.7557 91.8318 87.1764C91.8318 86.964 91.798 86.7612 91.7305 86.5682C91.6725 86.3654 91.5712 86.1771 91.4264 86.0034C91.2815 85.8296 91.074 85.6655 90.8036 85.511C90.543 85.3565 90.2099 85.2165 89.8044 85.091L84.3882 83.498C83.9827 83.3822 83.5097 83.218 82.969 83.0056C82.438 82.7932 81.9215 82.4891 81.4195 82.0933C80.9174 81.6975 80.4975 81.1761 80.1596 80.5293C79.8313 79.8728 79.6672 79.0473 79.6672 78.0529C79.6672 76.653 80.0196 75.4896 80.7243 74.5628C81.4291 73.636 82.3704 72.9457 83.5483 72.4919C84.7261 72.0381 86.0295 71.8161 87.4584 71.8257C88.8969 71.845 90.1809 72.0912 91.3105 72.5643C92.4401 73.0374 93.3862 73.7277 94.1489 74.6352C94.9116 75.5331 95.4619 76.6337 95.7998 77.937L91.5422 78.6611C91.3877 77.9853 91.1029 77.4157 90.6878 76.9523C90.2726 76.4889 89.7754 76.1365 89.1962 75.8951C88.6265 75.6537 88.028 75.5234 87.4004 75.5041C86.7825 75.4848 86.1984 75.5717 85.6481 75.7648C85.1075 75.9482 84.6634 76.2185 84.3158 76.5758C83.9779 76.933 83.809 77.3578 83.809 77.8501C83.809 78.3039 83.9489 78.6756 84.2289 78.9652C84.5089 79.2452 84.8613 79.4721 85.2861 79.6459C85.7109 79.8197 86.1453 79.9645 86.5894 80.0803L90.2099 81.0651C90.7505 81.2099 91.3491 81.403 92.0056 81.6444C92.6621 81.8761 93.2897 82.2043 93.8882 82.6291C94.4965 83.0443 94.9937 83.5946 95.3799 84.28C95.7757 84.9655 95.9736 85.8344 95.9736 86.8867C95.9736 88.0067 95.7371 88.9866 95.264 89.8265C94.8006 90.6568 94.1731 91.3471 93.3814 91.8974C92.5897 92.4381 91.6918 92.8436 90.6878 93.1139C89.6934 93.3842 88.6652 93.5194 87.6032 93.5194Z" fill="white"/>
<path d="M108.541 93.0849C107.46 93.2877 106.398 93.3746 105.355 93.3456C104.322 93.3263 103.395 93.1477 102.574 92.8098C101.763 92.4622 101.145 91.9071 100.721 91.1444C100.335 90.4299 100.132 89.7059 100.112 88.9721C100.093 88.2287 100.083 87.3888 100.083 86.4523V73.1001H104.023V86.2206C104.023 86.8288 104.027 87.3791 104.037 87.8715C104.056 88.3542 104.158 88.7404 104.341 89.03C104.689 89.5804 105.244 89.8796 106.007 89.9279C106.769 89.9762 107.614 89.9376 108.541 89.8121V93.0849ZM97.4188 80.4858V77.4447H108.541V80.4858H97.4188Z" fill="white"/>
<path d="M118.216 93.5194C116.642 93.5194 115.261 93.167 114.074 92.4622C112.886 91.7574 111.96 90.7872 111.293 89.5514C110.637 88.306 110.309 86.8771 110.309 85.2648C110.309 83.6332 110.647 82.1995 111.322 80.9637C111.998 79.7183 112.93 78.748 114.117 78.0529C115.305 77.3578 116.671 77.0102 118.216 77.0102C119.789 77.0102 121.17 77.3626 122.358 78.0674C123.555 78.7721 124.486 79.7473 125.153 80.9927C125.819 82.2285 126.152 83.6525 126.152 85.2648C126.152 86.8867 125.814 88.3204 125.138 89.5659C124.472 90.8016 123.54 91.7719 122.343 92.4767C121.156 93.1718 119.78 93.5194 118.216 93.5194ZM118.216 89.841C119.48 89.841 120.422 89.4162 121.04 88.5666C121.667 87.7074 121.981 86.6068 121.981 85.2648C121.981 83.8745 121.662 82.7643 121.025 81.934C120.398 81.1037 119.461 80.6886 118.216 80.6886C117.357 80.6886 116.652 80.8817 116.101 81.2678C115.551 81.654 115.141 82.1898 114.87 82.8753C114.61 83.5608 114.479 84.3573 114.479 85.2648C114.479 86.6647 114.793 87.7798 115.421 88.6101C116.058 89.4307 116.99 89.841 118.216 89.841Z" fill="white"/>
<path d="M129.336 93.0849V77.4447H132.812V81.2678L132.435 80.7755C132.638 80.2348 132.909 79.7424 133.246 79.2983C133.584 78.8542 133.999 78.4873 134.492 78.1977C134.868 77.966 135.279 77.7874 135.723 77.6619C136.167 77.5267 136.626 77.4447 137.099 77.4157C137.572 77.3771 138.045 77.3867 138.518 77.4447V81.123C138.083 80.9879 137.576 80.9444 136.997 80.9927C136.428 81.0313 135.911 81.1616 135.448 81.3837C134.984 81.5961 134.593 81.8809 134.275 82.2381C133.956 82.5857 133.715 83.0008 133.551 83.4835C133.386 83.9566 133.304 84.4924 133.304 85.091V93.0849H129.336Z" fill="white"/>
<path d="M142.705 100.036L145.717 91.7526L145.775 94.1855L138.969 77.4447H143.053L147.629 89.2907H146.702L151.25 77.4447H155.189L146.355 100.036H142.705Z" fill="white"/>
<path d="M7.02327 24.8044V8.30426H0.707031V4.77051H17.1237V8.30426H10.8075V24.8044H7.02327Z" fill="white"/>
<path d="M17.9737 24.8044V9.77898H21.3126V13.4519L20.9509 12.9788C21.1457 12.4594 21.4054 11.9864 21.73 11.5598C22.0546 11.1331 22.4535 10.7807 22.9265 10.5024C23.2882 10.2798 23.6824 10.1082 24.109 9.98767C24.5357 9.85782 24.9762 9.77898 25.4307 9.75116C25.8852 9.71406 26.3397 9.72333 26.7941 9.77898V13.3127C26.3768 13.1829 25.8898 13.1412 25.3333 13.1875C24.7861 13.2246 24.2899 13.3498 23.8447 13.5632C23.3995 13.7672 23.0239 14.0408 22.7178 14.384C22.4117 14.7179 22.1798 15.1167 22.0222 15.5805C21.8645 16.0349 21.7857 16.5497 21.7857 17.1247V24.8044H17.9737Z" fill="white"/>
<path d="M35.0333 25.2496C33.8554 25.2496 32.8955 25.0502 32.1535 24.6514C31.4115 24.2525 30.8318 23.7471 30.4144 23.1349C30.0063 22.5228 29.7141 21.8874 29.5379 21.2289C29.3617 20.5611 29.255 19.9536 29.2179 19.4064C29.1808 18.8592 29.1623 18.4603 29.1623 18.2099V9.77898H33.0021V16.8743C33.0021 17.2175 33.0207 17.6581 33.0578 18.196C33.0949 18.7247 33.2108 19.258 33.4056 19.7959C33.6003 20.3339 33.9157 20.7837 34.3516 21.1454C34.7968 21.5072 35.4229 21.688 36.2298 21.688C36.5544 21.688 36.9022 21.637 37.2732 21.535C37.6442 21.433 37.992 21.2382 38.3167 20.9507C38.6413 20.6539 38.9056 20.2226 39.1097 19.6568C39.323 19.0818 39.4297 18.3305 39.4297 17.403L41.6 18.4325C41.6 19.6197 41.3588 20.7327 40.8765 21.7715C40.3942 22.8103 39.6662 23.6497 38.6923 24.2896C37.7277 24.9296 36.508 25.2496 35.0333 25.2496ZM39.9027 24.8044V19.8238H39.4297V9.77898H43.2417V24.8044H39.9027Z" fill="white"/>
<path d="M54.114 25.2218C52.5744 25.2218 51.2156 24.8925 50.0377 24.234C48.869 23.5662 47.9508 22.6526 47.283 21.4932C46.6245 20.3246 46.2952 18.989 46.2952 17.4865C46.2952 15.8448 46.6198 14.4165 47.2691 13.2014C47.9183 11.9864 48.8134 11.045 49.9542 10.3772C51.095 9.70014 52.4074 9.36161 53.8914 9.36161C55.4681 9.36161 56.8084 9.73261 57.9121 10.4746C59.0158 11.2166 59.832 12.26 60.3607 13.6049C60.8893 14.9498 61.0748 16.5311 60.9172 18.349H57.1747V16.9578C57.1747 15.4274 56.9289 14.3283 56.4374 13.6605C55.9551 12.9835 55.1621 12.6449 54.0583 12.6449C52.7691 12.6449 51.8184 13.0391 51.2063 13.8275C50.6034 14.6066 50.302 15.7613 50.302 17.2917C50.302 18.6922 50.6034 19.7774 51.2063 20.5472C51.8184 21.3077 52.7135 21.688 53.8914 21.688C54.6334 21.688 55.2687 21.5257 55.7974 21.2011C56.3261 20.8765 56.7295 20.4081 57.0078 19.7959L60.792 20.8811C60.2262 22.2538 59.3312 23.3204 58.1069 24.081C56.8918 24.8415 55.5609 25.2218 54.114 25.2218ZM49.1333 18.349V15.5387H59.0946V18.349H49.1333Z" fill="white"/>
</svg>
